<?xml version="1.0" ?><!DOCTYPE svg  PUBLIC '-//W3C//DTD SVG 1.1//EN'  'http://www.w3.org/Graphics/SVG/1.1/DTD/svg11.dtd'><svg height="512px" style="enable-background:new 0 0 512 512;" version="1.1" viewBox="0 0 512 512" width="512px" xml:space="preserve" xmlns="http://www.w3.org/2000/svg" xmlns:xlink="http://www.w3.org/1999/xlink"><g id="C_-_27_x2C__plan_x2C__strategic_x2C__strategy_x2C__tactics_x2C__economics_x2C__market_x2C_"><g><path d="M193.137,224.501c7.322,0,13.279-5.918,13.279-13.193c0-7.272-5.957-13.189-13.279-13.189    c-7.317,0-13.271,5.917-13.271,13.189C179.865,218.583,185.819,224.501,193.137,224.501z"/><path d="M332.529,99.801v22.125c0,2.588-2.098,4.686-4.686,4.686H184.156c-2.587,0-4.686-2.098-4.686-4.686V99.801h-71.452    v366.031h295.963V99.801H332.529z M193.137,188.748c12.489,0,22.649,10.12,22.649,22.56c0,12.442-10.161,22.564-22.649,22.564    c-12.485,0-22.642-10.122-22.642-22.564C170.495,198.868,180.651,188.748,193.137,188.748z M157.223,403.698    c-0.157,0-0.315-0.008-0.475-0.024c-2.574-0.258-4.452-2.555-4.193-5.13c4.886-48.623,22.248-90.834,51.603-125.462    c30.694-36.208,74.042-63.331,128.962-80.728l-25.327-12.603c-2.316-1.153-3.261-3.965-2.107-6.282    c1.152-2.317,3.963-3.259,6.282-2.107l35.87,17.848c0.003,0.001,0.006,0.003,0.008,0.004l0.049,0.024    c0.035,0.018,0.063,0.042,0.097,0.061c0.118,0.063,0.229,0.139,0.341,0.211c0.111,0.071,0.229,0.132,0.33,0.212    c0.036,0.027,0.068,0.058,0.104,0.086c0.098,0.08,0.183,0.173,0.275,0.261c0.094,0.091,0.196,0.175,0.283,0.273    c0.03,0.034,0.057,0.07,0.086,0.104c0.08,0.097,0.146,0.207,0.22,0.311c0.074,0.106,0.157,0.206,0.222,0.317    c0.023,0.041,0.045,0.083,0.066,0.124c0.059,0.106,0.102,0.222,0.15,0.333c0.055,0.122,0.116,0.238,0.16,0.363    c0.018,0.052,0.03,0.105,0.047,0.157c0.011,0.035,0.029,0.064,0.039,0.099c0.023,0.085,0.026,0.17,0.046,0.255    c0.027,0.123,0.063,0.241,0.082,0.365c0.009,0.062,0.009,0.123,0.016,0.184c0.014,0.135,0.015,0.268,0.017,0.403    c0.002,0.106,0.015,0.21,0.01,0.318c-0.004,0.062-0.016,0.125-0.021,0.188c-0.015,0.152-0.044,0.298-0.072,0.447    c-0.017,0.087-0.017,0.175-0.039,0.262l-0.012,0.052c-0.002,0.004-0.002,0.007-0.004,0.011l-8.966,35.69    c-0.534,2.127-2.443,3.545-4.541,3.545c-0.378,0-0.763-0.046-1.146-0.142c-2.51-0.63-4.033-3.176-3.402-5.686l6.979-27.783    c-133.926,41.05-170.488,130.625-177.381,199.218C161.636,401.896,159.6,403.698,157.223,403.698z M294.843,323.84    c2.024,1.611,2.358,4.559,0.747,6.583c-0.926,1.162-2.291,1.768-3.669,1.768c-1.023,0-2.053-0.333-2.915-1.021l-19.533-15.553    l-19.532,15.553c-0.863,0.688-1.894,1.021-2.916,1.021c-1.378,0-2.744-0.605-3.669-1.768c-1.612-2.024-1.277-4.972,0.747-6.583    l17.848-14.211l-17.848-14.212c-2.024-1.612-2.359-4.56-0.747-6.584c1.612-2.025,4.559-2.359,6.584-0.747l19.532,15.553    l19.533-15.553c2.022-1.614,4.971-1.278,6.584,0.747c1.611,2.024,1.277,4.972-0.747,6.584l-17.848,14.212L294.843,323.84z     M368.449,425.828c0,2.588-2.098,4.685-4.686,4.685H211.101c-2.587,0-4.685-2.097-4.685-4.685c0-2.589,2.098-4.686,4.685-4.686    h147.978V273.875c0-2.588,2.098-4.686,4.686-4.686s4.686,2.098,4.686,4.686V425.828z"/><path d="M323.158,95.115v-22.13h-40.216c-2.587,0-4.686-2.098-4.686-4.686c0-12.203-9.985-22.131-22.261-22.131    c-12.27,0-22.253,9.928-22.253,22.131c0,2.588-2.098,4.686-4.686,4.686h-40.216v22.13v22.125h134.317V95.115z"/></g></g><g id="Layer_1"/></svg>