<?xml version="1.0" ?><!DOCTYPE svg  PUBLIC '-//W3C//DTD SVG 1.1//EN'  'http://www.w3.org/Graphics/SVG/1.1/DTD/svg11.dtd'><svg height="512px" style="enable-background:new 0 0 512 512;" version="1.1" viewBox="0 0 512 512" width="512px" xml:space="preserve" xmlns="http://www.w3.org/2000/svg" xmlns:xlink="http://www.w3.org/1999/xlink"><g id="C_-_181_x2C__target_x2C__dart_x2C__goal_x2C__focus"><g><path d="M462.601,74.684l-25.308,0.758l14.586-15.321c1.784-1.875,1.711-4.84-0.163-6.624c-1.875-1.786-4.841-1.711-6.624,0.163    L430.65,68.831l-0.15-22.692c-0.018-2.577-2.111-4.654-4.686-4.654c-0.011,0-0.021,0-0.031,0    c-2.588,0.017-4.672,2.128-4.654,4.716l0.215,32.406l-40.266,42.298c-35.755-32.095-83.072-51.663-134.9-51.663    c-111.165,0-201.604,90.004-201.604,200.634c0,56.505,23.596,107.624,61.49,144.124l-48.261,48.042    c-1.834,1.826-1.841,4.793-0.015,6.627c0.916,0.919,2.118,1.38,3.321,1.38c1.195,0,2.391-0.455,3.305-1.364l48.562-48.341    c0.434,0.381,0.859,0.771,1.297,1.148c0.057,0.053,0.121,0.09,0.176,0.145c0.005,0.006,0.008,0.013,0.014,0.018    c35.355,30.432,81.413,48.863,131.715,48.863c51.037,0,97.696-18.98,133.25-50.207l48.603,48.374    c0.914,0.909,2.11,1.364,3.306,1.364c1.202,0,2.404-0.461,3.32-1.38c1.826-1.834,1.818-4.801-0.016-6.627l-48.309-48.083    c37.873-36.497,61.458-87.598,61.458-144.083c0-55.699-22.933-106.163-59.888-142.551l40.204-42.232l34.774-1.042    c2.586-0.078,4.62-2.238,4.543-4.824C467.348,76.64,465.193,74.624,462.601,74.684z M407.039,269.406    c0,88.295-72.162,160.128-160.861,160.128S85.317,357.701,85.317,269.406c0-88.293,72.162-160.126,160.861-160.126    c41.113,0,78.666,15.44,107.134,40.791l-6.462,6.789c-26.783-23.751-62.061-38.208-100.672-38.208    c-83.532,0-151.49,67.628-151.49,150.755c0,83.127,67.958,150.757,151.49,150.757c83.533,0,151.49-67.63,151.49-150.757    c0-41.347-16.818-78.856-43.998-106.12l-27.305,28.683c19.539,20.046,31.591,47.365,31.591,77.437    c0,61.357-50.144,111.274-111.778,111.274c-61.63,0-111.771-49.917-111.771-111.274c0-61.355,50.14-111.272,111.771-111.272    c28.055,0,53.727,10.345,73.375,27.401l-6.465,6.791c-17.959-15.458-41.356-24.82-66.91-24.82    c-56.463,0-102.399,45.713-102.399,101.901c0,56.189,45.937,101.903,102.399,101.903c56.467,0,102.407-45.714,102.407-101.903    c0-27.406-10.933-52.317-28.683-70.649l-0.668,0.702l66.135-69.472l-25.238,26.512    C389.104,185.473,407.039,225.393,407.039,269.406z M307.922,269.406c0,33.897-27.698,61.476-61.744,61.476    c-34.045,0-61.743-27.578-61.743-61.476c0-33.897,27.698-61.475,61.743-61.475c14.744,0,28.291,5.179,38.92,13.796l-6.486,6.814    c-8.928-7.027-20.192-11.239-32.434-11.239c-28.878,0-52.372,23.374-52.372,52.104c0,28.731,23.494,52.104,52.372,52.104    c28.879,0,52.373-23.373,52.373-52.104c0-13.193-4.964-25.249-13.119-34.439l6.484-6.812    C301.856,239.071,307.922,253.546,307.922,269.406z"/></g></g><g id="Layer_1"/></svg>